<?xml version="1.0" encoding="UTF-8" standalone="no"?>
<svg
   xmlns:dc="http://purl.org/dc/elements/1.1/"
   xmlns:cc="http://creativecommons.org/ns#"
   xmlns:rdf="http://www.w3.org/1999/02/22-rdf-syntax-ns#"
   xmlns:svg="http://www.w3.org/2000/svg"
   xmlns="http://www.w3.org/2000/svg"
   xmlns:sodipodi="http://sodipodi.sourceforge.net/DTD/sodipodi-0.dtd"
   xmlns:inkscape="http://www.inkscape.org/namespaces/inkscape"
   width="795.92303mm"
   height="259.64285mm"
   viewBox="0 0 795.92303 259.64285"
   version="1.1"
   id="svg8"
   inkscape:version="1.0.2-2 (e86c870879, 2021-01-15)"
   sodipodi:docname="juke.svg">
  <defs
     id="defs2">
    <clipPath
       clipPathUnits="userSpaceOnUse"
       id="clipPath6761">
      <rect
         y="222.91891"
         x="860.67474"
         height="172.51997"
         width="135.58908"
         id="rect6763"
         style="opacity:0.99;fill:#ffffff;fill-opacity:1;fill-rule:nonzero;stroke:#6b433f;stroke-width:2.57981;stroke-linecap:round;stroke-linejoin:miter;stroke-miterlimit:4;stroke-dasharray:none;stroke-dashoffset:0;stroke-opacity:1;paint-order:markers stroke fill"
         transform="rotate(90)" />
    </clipPath>
  </defs>
  <sodipodi:namedview
     id="base"
     pagecolor="#ffffff"
     bordercolor="#666666"
     borderopacity="1.0"
     inkscape:pageopacity="0.0"
     inkscape:pageshadow="2"
     inkscape:zoom="0.12374369"
     inkscape:cx="-695.74472"
     inkscape:cy="2345.2742"
     inkscape:document-units="mm"
     inkscape:current-layer="layer1"
     inkscape:document-rotation="0"
     showgrid="false"
     inkscape:window-width="1920"
     inkscape:window-height="1017"
     inkscape:window-x="-8"
     inkscape:window-y="-8"
     inkscape:window-maximized="1"
     inkscape:snap-global="true"
     showguides="true"
     inkscape:guide-bbox="true" />
  <metadata
     id="metadata5">
    <rdf:RDF>
      <cc:Work
         rdf:about="">
        <dc:format>image/svg+xml</dc:format>
        <dc:type
           rdf:resource="http://purl.org/dc/dcmitype/StillImage" />
        <dc:title></dc:title>
      </cc:Work>
    </rdf:RDF>
  </metadata>
  <g
     inkscape:label="Layer 1"
     inkscape:groupmode="layer"
     id="layer1"
     transform="translate(293.41076,-2.3351678)">
    <path
       id="rect1764-4"
       style="fill:#000000;fill-opacity:1;fill-rule:evenodd;stroke:none;stroke-width:48.4152;stroke-linecap:square"
       d="m -255.38477,2.3351678 h 147.34857 c 21.066239,0 38.025362,16.9593752 38.025362,38.0254832 0,21.066109 -16.959123,38.025484 -38.025362,38.025484 h -147.34857 c -21.06624,0 -38.02599,-16.959375 -38.02599,-38.025484 0,-21.066108 16.95975,-38.0254832 38.02599,-38.0254832 z" />
    <path
       id="rect1766-5"
       style="fill:#000000;fill-opacity:1;fill-rule:evenodd;stroke:none;stroke-width:48.4152;stroke-linecap:square"
       d="m -175.17413,223.95228 v -89.71629 c 0,-21.06611 16.95913,-38.025484 38.02536,-38.025484 21.06623,0 38.025357,16.959374 38.025357,38.025484 v 89.71629 c 0,21.06611 -16.959127,38.02548 -38.025357,38.02548 -21.06623,0 -38.02536,-16.95937 -38.02536,-38.02548 z" />
    <path
       id="circle1768-1"
       style="fill:#000000;fill-opacity:1;fill-rule:evenodd;stroke:none;stroke-width:44.9293;stroke-linecap:square"
       d="m -212.01174,227.51739 a 34.460589,34.460589 0 0 1 -34.46088,34.46063 34.460589,34.460589 0 0 1 -34.46024,-34.46063 34.460589,34.460589 0 0 1 34.46024,-34.46056 34.460589,34.460589 0 0 1 34.46088,34.46056 z" />
    <path
       d="m 15.960876,221.79996 q -9.6061878,0.48029 -14.8895712,-4.8031 -5.0432387,-5.52352 -5.0432387,-13.92892 0,-6.48418 3.60237073,-11.28727 3.60230387,-4.80303 10.80691117,-5.28338 l 6.724319,-0.48029 q 8.885687,-0.48029 12.728135,-4.0826 4.08266,-3.84251 4.08266,-12.48805 V 70.743075 q 0,-10.806978 5.763673,-16.570651 5.763673,-5.763673 16.33044,-5.763673 10.566833,0 16.330506,5.763673 5.763673,5.763673 5.763673,16.570651 v 97.982835 q 0,49.47174 -53.554335,52.59376 z"
       style="font-style:normal;font-variant:normal;font-weight:900;font-stretch:normal;font-size:358.814px;line-height:1.25;font-family:Nunito;-inkscape-font-specification:'Nunito Heavy';letter-spacing:0px;word-spacing:0px;fill:#000000;fill-opacity:1;stroke:none;stroke-width:6.00384"
       id="path1858" />
    <path
       d="m 149.96669,222.52039 q -23.05476,0 -34.10189,-12.48799 -10.80691,-12.72813 -10.80691,-38.66483 v -50.43232 q 0,-21.373678 21.37368,-21.373678 10.32662,0 15.85015,5.523528 5.5236,5.52353 5.5236,15.85015 v 51.63311 q 0,17.29109 14.8895,17.29109 8.64554,0 14.16914,-6.24397 5.52353,-6.24402 5.52353,-16.57065 v -46.10958 q 0,-21.373678 21.37368,-21.373678 10.32662,0 15.85021,5.523528 5.52353,5.52353 5.52353,15.85015 v 79.49096 q 0,21.61389 -20.65324,21.61389 -18.49188,0 -20.89339,-17.29108 -11.52742,17.77137 -33.62159,17.77137 z"
       style="font-style:normal;font-variant:normal;font-weight:900;font-stretch:normal;font-size:358.814px;line-height:1.25;font-family:Nunito;-inkscape-font-specification:'Nunito Heavy';letter-spacing:0px;word-spacing:0px;fill:#000000;fill-opacity:1;stroke:none;stroke-width:6.00384"
       id="path1860" />
    <path
       d="m 271.24443,222.0401 q -10.32663,0 -15.85015,-5.52352 -5.28339,-5.52353 -5.28339,-16.09037 V 70.022574 q 0,-21.613823 21.13354,-21.613823 10.32662,0 15.85015,5.523528 5.76374,5.523528 5.76374,16.090295 v 79.250886 h 0.48029 l 29.29878,-35.54282 q 6.00389,-7.44482 11.04713,-10.80691 5.28338,-3.362158 14.16907,-3.362158 8.88568,0 13.68878,4.322738 4.80309,4.32281 4.80309,10.80691 0.24015,6.48418 -5.04324,12.96835 l -25.45634,30.25943 29.29879,36.98369 q 5.04324,6.96446 4.08259,13.20849 -0.72043,6.00381 -6.00381,10.08647 -5.04324,3.84245 -12.96835,3.84245 -9.84627,0 -15.61001,-3.36216 -5.52352,-3.6023 -11.2872,-11.04705 l -30.01928,-36.98375 h -0.48029 v 29.77907 q 0,21.61389 -21.61389,21.61389 z"
       style="font-style:normal;font-variant:normal;font-weight:900;font-stretch:normal;font-size:358.814px;line-height:1.25;font-family:Nunito;-inkscape-font-specification:'Nunito Heavy';letter-spacing:0px;word-spacing:0px;fill:#000000;fill-opacity:1;stroke:none;stroke-width:6.00384"
       id="path1862" />
    <path
       d="m 452.07992,222.52039 q -21.61383,0 -37.46404,-7.44475 -15.61001,-7.68496 -24.01541,-21.61389 -8.40539,-13.92893 -8.40539,-32.90109 0,-18.01152 7.9251,-31.94045 8.16526,-13.92899 22.09418,-21.61389 14.16907,-7.925104 32.18064,-7.925104 17.77139,0 30.73972,7.444824 13.20847,7.44475 20.17293,21.37367 7.20462,13.68879 7.20462,32.18066 0,9.36598 -11.04708,9.36598 h -68.44391 q 2.16136,11.52741 9.60618,16.57065 7.44476,5.04324 20.65323,5.04324 5.04324,0 12.00771,-1.20079 6.96447,-1.20079 13.20847,-3.84245 7.68493,-2.88187 12.96832,0 5.28339,2.64166 6.96446,8.4054 1.92124,5.52352 -0.4803,11.52741 -2.16139,5.76367 -8.8857,8.88569 -8.40539,4.08259 -18.01155,5.76367 -9.36601,1.92122 -18.97218,1.92122 z m -5.76369,-95.82147 q -9.60617,0 -15.85014,5.76374 -6.00388,5.76368 -7.68496,16.8108 h 44.66866 q -0.72047,-11.28727 -6.24401,-16.8108 -5.28339,-5.76374 -14.88955,-5.76374 z"
       style="font-style:normal;font-variant:normal;font-weight:900;font-stretch:normal;font-size:358.814px;line-height:1.25;font-family:Nunito;-inkscape-font-specification:'Nunito Heavy';letter-spacing:0px;word-spacing:0px;fill:#000000;fill-opacity:1;stroke:none;stroke-width:6.00384"
       id="path1864" />
  </g>
</svg>
