<?xml version="1.0" encoding="UTF-8" standalone="no"?>
<svg
   xmlns:dc="http://purl.org/dc/elements/1.1/"
   xmlns:cc="http://creativecommons.org/ns#"
   xmlns:rdf="http://www.w3.org/1999/02/22-rdf-syntax-ns#"
   xmlns:svg="http://www.w3.org/2000/svg"
   xmlns="http://www.w3.org/2000/svg"
   xmlns:sodipodi="http://sodipodi.sourceforge.net/DTD/sodipodi-0.dtd"
   xmlns:inkscape="http://www.inkscape.org/namespaces/inkscape"
   width="795.92303mm"
   height="259.64285mm"
   viewBox="0 0 795.92303 259.64285"
   version="1.1"
   id="svg8"
   inkscape:version="1.0.2-2 (e86c870879, 2021-01-15)"
   sodipodi:docname="juke.svg">
  <defs
     id="defs2">
    <clipPath
       clipPathUnits="userSpaceOnUse"
       id="clipPath6761">
      <rect
         y="222.91891"
         x="860.67474"
         height="172.51997"
         width="135.58908"
         id="rect6763"
         style="opacity:0.99;fill:#ffffff;fill-opacity:1;fill-rule:nonzero;stroke:#6b433f;stroke-width:2.57981;stroke-linecap:round;stroke-linejoin:miter;stroke-miterlimit:4;stroke-dasharray:none;stroke-dashoffset:0;stroke-opacity:1;paint-order:markers stroke fill"
         transform="rotate(90)" />
    </clipPath>
  </defs>
  <sodipodi:namedview
     id="base"
     pagecolor="#ffffff"
     bordercolor="#666666"
     borderopacity="1.0"
     inkscape:pageopacity="0.0"
     inkscape:pageshadow="2"
     inkscape:zoom="0.12374369"
     inkscape:cx="-695.74472"
     inkscape:cy="2345.2742"
     inkscape:document-units="mm"
     inkscape:current-layer="layer1"
     inkscape:document-rotation="0"
     showgrid="false"
     inkscape:window-width="1920"
     inkscape:window-height="1017"
     inkscape:window-x="-8"
     inkscape:window-y="-8"
     inkscape:window-maximized="1"
     inkscape:snap-global="true"
     showguides="true"
     inkscape:guide-bbox="true" />
  <metadata
     id="metadata5">
    <rdf:RDF>
      <cc:Work
         rdf:about="">
        <dc:format>image/svg+xml</dc:format>
        <dc:type
           rdf:resource="http://purl.org/dc/dcmitype/StillImage" />
        <dc:title></dc:title>
      </cc:Work>
    </rdf:RDF>
  </metadata>
  <g
     inkscape:label="Layer 1"
     inkscape:groupmode="layer"
     id="layer1"
     transform="translate(293.41076,-2.3351678)">
    <path
       id="rect1764-4"
       style="fill:#ffffff;fill-opacity:1;fill-rule:evenodd;stroke:none;stroke-width:48.4152;stroke-linecap:square"
       d="m -255.38477,2.3351678 h 147.34857 c 21.066239,0 38.025362,16.9593752 38.025362,38.0254832 0,21.066109 -16.959123,38.025484 -38.025362,38.025484 h -147.34857 c -21.06624,0 -38.02599,-16.959375 -38.02599,-38.025484 0,-21.066108 16.95975,-38.0254832 38.02599,-38.0254832 z" />
    <path
       id="rect1766-5"
       style="fill:#ffffff;fill-opacity:1;fill-rule:evenodd;stroke:none;stroke-width:48.4152;stroke-linecap:square"
       d="m -175.17413,223.95228 v -89.71629 c 0,-21.06611 16.95913,-38.025484 38.02536,-38.025484 21.06623,0 38.025357,16.959374 38.025357,38.025484 v 89.71629 c 0,21.06611 -16.959127,38.02548 -38.025357,38.02548 -21.06623,0 -38.02536,-16.95937 -38.02536,-38.02548 z" />
    <path
       id="circle1768-1"
       style="fill:#ffffff;fill-opacity:1;fill-rule:evenodd;stroke:none;stroke-width:44.9293;stroke-linecap:square"
       d="m -212.01174,227.51739 a 34.460589,34.460589 0 0 1 -34.46088,34.46063 34.460589,34.460589 0 0 1 -34.46024,-34.46063 34.460589,34.460589 0 0 1 34.46024,-34.46056 34.460589,34.460589 0 0 1 34.46088,34.46056 z" />
  </g>

</svg>
